<mxfile host="Electron" agent="Mozilla/5.0 (Windows NT 10.0; Win64; x64) AppleWebKit/537.36 (KHTML, like Gecko) draw.io/27.0.5 Chrome/134.0.6998.205 Electron/35.3.0 Safari/537.36" version="27.0.5">
  <diagram name="Page-1" id="RARZ0sbOknYeb2wRcMUi">
    <mxGraphModel dx="786" dy="524" grid="1" gridSize="10" guides="1" tooltips="1" connect="1" arrows="1" fold="1" page="1" pageScale="1" pageWidth="850" pageHeight="1100" math="0" shadow="0">
      <root>
        <mxCell id="0" />
        <mxCell id="1" parent="0" />
        <mxCell id="uuPsYE0RNnNZsXsxfGsV-1" value="&lt;b&gt;&lt;font style=&quot;font-size: 18px;&quot;&gt;Integration Model&amp;nbsp;&lt;/font&gt;&lt;/b&gt;" style="text;html=1;align=center;verticalAlign=middle;whiteSpace=wrap;rounded=0;" parent="1" vertex="1">
          <mxGeometry x="50" y="10" width="160" height="30" as="geometry" />
        </mxCell>
        <mxCell id="uuPsYE0RNnNZsXsxfGsV-2" value="crm_cust_info" style="swimlane;fontStyle=0;childLayout=stackLayout;horizontal=1;startSize=30;horizontalStack=0;resizeParent=1;resizeParentMax=0;resizeLast=0;collapsible=1;marginBottom=0;whiteSpace=wrap;html=1;fillColor=#dae8fc;strokeColor=#6c8ebf;rounded=1;fontSize=16;" parent="1" vertex="1">
          <mxGeometry x="270" y="130" width="130" height="90" as="geometry" />
        </mxCell>
        <mxCell id="uuPsYE0RNnNZsXsxfGsV-3" value="cst_id" style="text;strokeColor=none;fillColor=none;align=left;verticalAlign=middle;spacingLeft=4;spacingRight=4;overflow=hidden;points=[[0,0.5],[1,0.5]];portConstraint=eastwest;rotatable=0;whiteSpace=wrap;html=1;fontSize=16;" parent="uuPsYE0RNnNZsXsxfGsV-2" vertex="1">
          <mxGeometry y="30" width="130" height="30" as="geometry" />
        </mxCell>
        <mxCell id="UBawWDMkUufhLqzpgusO-3" value="cst_key" style="text;strokeColor=none;fillColor=none;align=left;verticalAlign=middle;spacingLeft=4;spacingRight=4;overflow=hidden;points=[[0,0.5],[1,0.5]];portConstraint=eastwest;rotatable=0;whiteSpace=wrap;html=1;fontSize=16;" parent="uuPsYE0RNnNZsXsxfGsV-2" vertex="1">
          <mxGeometry y="60" width="130" height="30" as="geometry" />
        </mxCell>
        <mxCell id="uuPsYE0RNnNZsXsxfGsV-6" value="&lt;font style=&quot;font-size: 14px;&quot;&gt;&lt;b&gt;Customer Information&lt;/b&gt;&lt;/font&gt;" style="text;html=1;align=center;verticalAlign=middle;whiteSpace=wrap;rounded=0;" parent="1" vertex="1">
          <mxGeometry x="260" y="100" width="160" height="30" as="geometry" />
        </mxCell>
        <mxCell id="uuPsYE0RNnNZsXsxfGsV-7" value="crm_prd_info" style="swimlane;fontStyle=0;childLayout=stackLayout;horizontal=1;startSize=30;horizontalStack=0;resizeParent=1;resizeParentMax=0;resizeLast=0;collapsible=1;marginBottom=0;whiteSpace=wrap;html=1;fillColor=#dae8fc;strokeColor=#6c8ebf;rounded=1;fontSize=16;" parent="1" vertex="1">
          <mxGeometry x="270" y="310" width="130" height="60" as="geometry" />
        </mxCell>
        <mxCell id="uuPsYE0RNnNZsXsxfGsV-8" value="prd_key" style="text;strokeColor=none;fillColor=none;align=left;verticalAlign=middle;spacingLeft=4;spacingRight=4;overflow=hidden;points=[[0,0.5],[1,0.5]];portConstraint=eastwest;rotatable=0;whiteSpace=wrap;html=1;fontSize=16;" parent="uuPsYE0RNnNZsXsxfGsV-7" vertex="1">
          <mxGeometry y="30" width="130" height="30" as="geometry" />
        </mxCell>
        <mxCell id="uuPsYE0RNnNZsXsxfGsV-9" value="&lt;font style=&quot;font-size: 14px;&quot;&gt;&lt;b&gt;Current &amp;amp; Historical Product Information&lt;/b&gt;&lt;/font&gt;" style="text;html=1;align=center;verticalAlign=middle;whiteSpace=wrap;rounded=0;" parent="1" vertex="1">
          <mxGeometry x="260" y="280" width="160" height="30" as="geometry" />
        </mxCell>
        <mxCell id="uuPsYE0RNnNZsXsxfGsV-10" value="crm_sales_details" style="swimlane;fontStyle=0;childLayout=stackLayout;horizontal=1;startSize=30;horizontalStack=0;resizeParent=1;resizeParentMax=0;resizeLast=0;collapsible=1;marginBottom=0;whiteSpace=wrap;html=1;fillColor=#dae8fc;strokeColor=#6c8ebf;rounded=1;fontSize=16;" parent="1" vertex="1">
          <mxGeometry x="40" y="210" width="130" height="70" as="geometry" />
        </mxCell>
        <mxCell id="uuPsYE0RNnNZsXsxfGsV-11" value="prd_key&amp;nbsp;" style="text;strokeColor=none;fillColor=none;align=left;verticalAlign=middle;spacingLeft=4;spacingRight=4;overflow=hidden;points=[[0,0.5],[1,0.5]];portConstraint=eastwest;rotatable=0;whiteSpace=wrap;html=1;fontSize=16;" parent="uuPsYE0RNnNZsXsxfGsV-10" vertex="1">
          <mxGeometry y="30" width="130" height="20" as="geometry" />
        </mxCell>
        <mxCell id="uuPsYE0RNnNZsXsxfGsV-13" value="cst_id" style="text;strokeColor=none;fillColor=none;align=left;verticalAlign=middle;spacingLeft=4;spacingRight=4;overflow=hidden;points=[[0,0.5],[1,0.5]];portConstraint=eastwest;rotatable=0;whiteSpace=wrap;html=1;fontSize=16;" parent="uuPsYE0RNnNZsXsxfGsV-10" vertex="1">
          <mxGeometry y="50" width="130" height="20" as="geometry" />
        </mxCell>
        <mxCell id="uuPsYE0RNnNZsXsxfGsV-12" value="&lt;font style=&quot;font-size: 14px;&quot;&gt;&lt;b&gt;Transaction Records About Sales &amp;amp; Orders&lt;/b&gt;&lt;/font&gt;&lt;div&gt;&lt;font style=&quot;font-size: 14px;&quot;&gt;&lt;b&gt;&lt;br&gt;&lt;/b&gt;&lt;/font&gt;&lt;/div&gt;" style="text;html=1;align=center;verticalAlign=middle;whiteSpace=wrap;rounded=0;" parent="1" vertex="1">
          <mxGeometry x="30" y="180" width="160" height="30" as="geometry" />
        </mxCell>
        <mxCell id="uuPsYE0RNnNZsXsxfGsV-16" style="edgeStyle=orthogonalEdgeStyle;rounded=0;orthogonalLoop=1;jettySize=auto;html=1;" parent="1" source="uuPsYE0RNnNZsXsxfGsV-13" target="uuPsYE0RNnNZsXsxfGsV-3" edge="1">
          <mxGeometry relative="1" as="geometry" />
        </mxCell>
        <mxCell id="uuPsYE0RNnNZsXsxfGsV-18" style="edgeStyle=orthogonalEdgeStyle;rounded=0;orthogonalLoop=1;jettySize=auto;html=1;entryX=0.059;entryY=0.667;entryDx=0;entryDy=0;entryPerimeter=0;" parent="1" source="uuPsYE0RNnNZsXsxfGsV-11" target="uuPsYE0RNnNZsXsxfGsV-8" edge="1">
          <mxGeometry relative="1" as="geometry" />
        </mxCell>
        <mxCell id="UBawWDMkUufhLqzpgusO-1" value="erp_cust_az12" style="swimlane;fontStyle=0;childLayout=stackLayout;horizontal=1;startSize=30;horizontalStack=0;resizeParent=1;resizeParentMax=0;resizeLast=0;collapsible=1;marginBottom=0;whiteSpace=wrap;html=1;fillColor=#fff2cc;strokeColor=#d6b656;rounded=1;fontSize=16;" parent="1" vertex="1">
          <mxGeometry x="590" y="120" width="130" height="60" as="geometry" />
        </mxCell>
        <mxCell id="UBawWDMkUufhLqzpgusO-2" value="cid" style="text;strokeColor=none;fillColor=none;align=left;verticalAlign=middle;spacingLeft=4;spacingRight=4;overflow=hidden;points=[[0,0.5],[1,0.5]];portConstraint=eastwest;rotatable=0;whiteSpace=wrap;html=1;fontSize=16;" parent="UBawWDMkUufhLqzpgusO-1" vertex="1">
          <mxGeometry y="30" width="130" height="30" as="geometry" />
        </mxCell>
        <mxCell id="UBawWDMkUufhLqzpgusO-4" style="edgeStyle=orthogonalEdgeStyle;rounded=0;orthogonalLoop=1;jettySize=auto;html=1;entryX=0;entryY=0.5;entryDx=0;entryDy=0;" parent="1" source="UBawWDMkUufhLqzpgusO-3" target="UBawWDMkUufhLqzpgusO-2" edge="1">
          <mxGeometry relative="1" as="geometry" />
        </mxCell>
        <mxCell id="UBawWDMkUufhLqzpgusO-5" value="&lt;b&gt;&lt;font style=&quot;font-size: 14px;&quot;&gt;Extra Customer Informartion (birthdate)&lt;/font&gt;&lt;/b&gt;" style="text;html=1;align=center;verticalAlign=middle;whiteSpace=wrap;rounded=0;" parent="1" vertex="1">
          <mxGeometry x="570" y="80" width="170" height="30" as="geometry" />
        </mxCell>
        <mxCell id="UBawWDMkUufhLqzpgusO-6" value="erp_loc_a101" style="swimlane;fontStyle=0;childLayout=stackLayout;horizontal=1;startSize=30;horizontalStack=0;resizeParent=1;resizeParentMax=0;resizeLast=0;collapsible=1;marginBottom=0;whiteSpace=wrap;html=1;fillColor=#fff2cc;strokeColor=#d6b656;rounded=1;fontSize=16;" parent="1" vertex="1">
          <mxGeometry x="580" y="235" width="130" height="60" as="geometry" />
        </mxCell>
        <mxCell id="UBawWDMkUufhLqzpgusO-8" value="&lt;font style=&quot;font-size: 14px;&quot;&gt;&lt;b&gt;Location of Customers&lt;/b&gt;&lt;/font&gt;" style="text;html=1;align=center;verticalAlign=middle;whiteSpace=wrap;rounded=0;" parent="1" vertex="1">
          <mxGeometry x="575" y="205" width="165" height="30" as="geometry" />
        </mxCell>
        <mxCell id="UBawWDMkUufhLqzpgusO-7" value="cid" style="text;strokeColor=none;fillColor=none;align=left;verticalAlign=middle;spacingLeft=4;spacingRight=4;overflow=hidden;points=[[0,0.5],[1,0.5]];portConstraint=eastwest;rotatable=0;whiteSpace=wrap;html=1;fontSize=16;" parent="1" vertex="1">
          <mxGeometry x="600" y="265" width="130" height="30" as="geometry" />
        </mxCell>
        <mxCell id="UBawWDMkUufhLqzpgusO-9" style="edgeStyle=orthogonalEdgeStyle;rounded=0;orthogonalLoop=1;jettySize=auto;html=1;entryX=0;entryY=0.75;entryDx=0;entryDy=0;" parent="1" source="UBawWDMkUufhLqzpgusO-3" target="UBawWDMkUufhLqzpgusO-6" edge="1">
          <mxGeometry relative="1" as="geometry" />
        </mxCell>
        <mxCell id="UBawWDMkUufhLqzpgusO-10" value="erp_px_cat_g1v2" style="swimlane;fontStyle=0;childLayout=stackLayout;horizontal=1;startSize=30;horizontalStack=0;resizeParent=1;resizeParentMax=0;resizeLast=0;collapsible=1;marginBottom=0;whiteSpace=wrap;html=1;fillColor=#fff2cc;strokeColor=#d6b656;rounded=1;fontSize=16;" parent="1" vertex="1">
          <mxGeometry x="580" y="360" width="130" height="60" as="geometry" />
        </mxCell>
        <mxCell id="UBawWDMkUufhLqzpgusO-11" value="id" style="text;strokeColor=none;fillColor=none;align=left;verticalAlign=middle;spacingLeft=4;spacingRight=4;overflow=hidden;points=[[0,0.5],[1,0.5]];portConstraint=eastwest;rotatable=0;whiteSpace=wrap;html=1;fontSize=16;" parent="UBawWDMkUufhLqzpgusO-10" vertex="1">
          <mxGeometry y="30" width="130" height="30" as="geometry" />
        </mxCell>
        <mxCell id="UBawWDMkUufhLqzpgusO-12" style="edgeStyle=orthogonalEdgeStyle;rounded=0;orthogonalLoop=1;jettySize=auto;html=1;entryX=0;entryY=0.5;entryDx=0;entryDy=0;" parent="1" source="uuPsYE0RNnNZsXsxfGsV-8" target="UBawWDMkUufhLqzpgusO-11" edge="1">
          <mxGeometry relative="1" as="geometry" />
        </mxCell>
        <mxCell id="UBawWDMkUufhLqzpgusO-13" value="&lt;b&gt;&lt;font&gt;Product information&amp;nbsp;&lt;/font&gt;&lt;/b&gt;" style="text;html=1;align=center;verticalAlign=middle;whiteSpace=wrap;rounded=0;fontSize=14;" parent="1" vertex="1">
          <mxGeometry x="580" y="330" width="140" height="30" as="geometry" />
        </mxCell>
        <mxCell id="UBawWDMkUufhLqzpgusO-15" value="" style="rounded=1;whiteSpace=wrap;html=1;fillColor=none;dashed=1;dashPattern=8 8;" parent="1" vertex="1">
          <mxGeometry x="15" y="80" width="410" height="400" as="geometry" />
        </mxCell>
        <mxCell id="UBawWDMkUufhLqzpgusO-16" value="CRM" style="text;html=1;align=center;verticalAlign=middle;whiteSpace=wrap;rounded=0;fontSize=16;fontStyle=1;fillColor=#dae8fc;strokeColor=#6c8ebf;" parent="1" vertex="1">
          <mxGeometry x="140" y="50" width="80" height="30" as="geometry" />
        </mxCell>
        <mxCell id="UBawWDMkUufhLqzpgusO-17" value="" style="rounded=1;whiteSpace=wrap;html=1;fillColor=none;dashed=1;dashPattern=12 12;strokeColor=#000000;" parent="1" vertex="1">
          <mxGeometry x="490" y="60" width="270" height="380" as="geometry" />
        </mxCell>
        <mxCell id="UBawWDMkUufhLqzpgusO-18" value="&lt;font style=&quot;font-size: 16px;&quot;&gt;&lt;b&gt;ERP&lt;/b&gt;&lt;/font&gt;" style="text;html=1;align=center;verticalAlign=middle;whiteSpace=wrap;rounded=0;fillColor=#fff2cc;strokeColor=#d6b656;" parent="1" vertex="1">
          <mxGeometry x="580" y="30" width="60" height="30" as="geometry" />
        </mxCell>
        <mxCell id="07fuaqwsPJZdccaV-gW0-3" value="&lt;b&gt;&lt;font style=&quot;font-size: 14px;&quot;&gt;Product&lt;/font&gt;&lt;/b&gt;" style="text;html=1;align=center;verticalAlign=middle;whiteSpace=wrap;rounded=0;fillColor=#f8cecc;strokeColor=#b85450;" vertex="1" parent="1">
          <mxGeometry x="270" y="370" width="130" height="20" as="geometry" />
        </mxCell>
        <mxCell id="07fuaqwsPJZdccaV-gW0-4" value="&lt;b&gt;&lt;font style=&quot;font-size: 14px;&quot;&gt;Product&lt;/font&gt;&lt;/b&gt;" style="text;html=1;align=center;verticalAlign=middle;whiteSpace=wrap;rounded=0;fillColor=#f8cecc;strokeColor=#b85450;" vertex="1" parent="1">
          <mxGeometry x="580" y="420" width="130" height="20" as="geometry" />
        </mxCell>
        <mxCell id="07fuaqwsPJZdccaV-gW0-5" value="&lt;span style=&quot;font-size: 14px;&quot;&gt;&lt;b&gt;Customer&lt;/b&gt;&lt;/span&gt;" style="text;html=1;align=center;verticalAlign=middle;whiteSpace=wrap;rounded=0;fillColor=#d5e8d4;strokeColor=#82b366;" vertex="1" parent="1">
          <mxGeometry x="270" y="220" width="130" height="20" as="geometry" />
        </mxCell>
        <mxCell id="07fuaqwsPJZdccaV-gW0-6" value="&lt;span style=&quot;font-size: 14px;&quot;&gt;&lt;b&gt;Customer&lt;/b&gt;&lt;/span&gt;" style="text;html=1;align=center;verticalAlign=middle;whiteSpace=wrap;rounded=0;fillColor=#d5e8d4;strokeColor=#82b366;" vertex="1" parent="1">
          <mxGeometry x="590" y="180" width="130" height="20" as="geometry" />
        </mxCell>
        <mxCell id="07fuaqwsPJZdccaV-gW0-7" value="&lt;span style=&quot;font-size: 14px;&quot;&gt;&lt;b&gt;Customer&lt;/b&gt;&lt;/span&gt;" style="text;html=1;align=center;verticalAlign=middle;whiteSpace=wrap;rounded=0;fillColor=#d5e8d4;strokeColor=#82b366;" vertex="1" parent="1">
          <mxGeometry x="585" y="295" width="130" height="20" as="geometry" />
        </mxCell>
        <mxCell id="07fuaqwsPJZdccaV-gW0-8" value="&lt;span style=&quot;font-size: 14px;&quot;&gt;&lt;b&gt;Sales&lt;/b&gt;&lt;/span&gt;" style="text;html=1;align=center;verticalAlign=middle;whiteSpace=wrap;rounded=0;fillColor=#e1d5e7;strokeColor=#9673a6;" vertex="1" parent="1">
          <mxGeometry x="40" y="280" width="130" height="20" as="geometry" />
        </mxCell>
      </root>
    </mxGraphModel>
  </diagram>
</mxfile>
